<mxfile host="app.diagrams.net" agent="Mozilla/5.0 (Macintosh; Intel Mac OS X 10_15_7) AppleWebKit/605.1.15 (KHTML, like Gecko) Version/17.1 Safari/605.1.15" version="24.7.7">
  <diagram name="Страница — 1" id="s-ZJDxfMnJXYoUtvhI8z">
    <mxGraphModel dx="1122" dy="761" grid="1" gridSize="10" guides="1" tooltips="1" connect="1" arrows="1" fold="1" page="1" pageScale="1" pageWidth="827" pageHeight="1169" math="0" shadow="0">
      <root>
        <mxCell id="0" />
        <mxCell id="1" parent="0" />
        <mxCell id="3ae-N-7YaE51V6dqeBcd-1" value="Начало" style="strokeWidth=2;html=1;shape=mxgraph.flowchart.terminator;whiteSpace=wrap;" vertex="1" parent="1">
          <mxGeometry x="280" y="40" width="200" height="80" as="geometry" />
        </mxCell>
        <mxCell id="3ae-N-7YaE51V6dqeBcd-2" value="Получить текущий статус устройства&amp;nbsp;" style="shape=process;whiteSpace=wrap;html=1;backgroundOutline=1;strokeWidth=2;" vertex="1" parent="1">
          <mxGeometry x="280" y="160" width="200" height="80" as="geometry" />
        </mxCell>
        <mxCell id="3ae-N-7YaE51V6dqeBcd-4" value="Статус&amp;nbsp;&lt;div&gt;устройства&amp;nbsp;&lt;/div&gt;&lt;div&gt;найден&lt;/div&gt;" style="rhombus;whiteSpace=wrap;html=1;strokeWidth=2;" vertex="1" parent="1">
          <mxGeometry x="280" y="280" width="200" height="120" as="geometry" />
        </mxCell>
        <mxCell id="3ae-N-7YaE51V6dqeBcd-5" value="&lt;div&gt;&lt;br&gt;&lt;/div&gt;текущий статус = активно&lt;div&gt;и поступивщий&amp;nbsp;&lt;/div&gt;&lt;div&gt;сигнал = активно&lt;/div&gt;" style="rhombus;whiteSpace=wrap;html=1;strokeWidth=2;" vertex="1" parent="1">
          <mxGeometry x="440" y="400" width="200" height="120" as="geometry" />
        </mxCell>
        <mxCell id="3ae-N-7YaE51V6dqeBcd-6" value="Обновить текущий статус устройства" style="shape=process;whiteSpace=wrap;html=1;backgroundOutline=1;strokeWidth=2;" vertex="1" parent="1">
          <mxGeometry x="300" y="530" width="200" height="80" as="geometry" />
        </mxCell>
        <mxCell id="3ae-N-7YaE51V6dqeBcd-7" value="Конец" style="strokeWidth=2;html=1;shape=mxgraph.flowchart.terminator;whiteSpace=wrap;" vertex="1" parent="1">
          <mxGeometry x="300" y="720" width="200" height="80" as="geometry" />
        </mxCell>
        <mxCell id="3ae-N-7YaE51V6dqeBcd-8" value="" style="endArrow=none;html=1;rounded=0;entryX=0.5;entryY=1;entryDx=0;entryDy=0;entryPerimeter=0;endFill=0;startArrow=none;startFill=0;strokeWidth=2;" edge="1" parent="1" target="3ae-N-7YaE51V6dqeBcd-1">
          <mxGeometry width="50" height="50" relative="1" as="geometry">
            <mxPoint x="380" y="160" as="sourcePoint" />
            <mxPoint x="470" y="270" as="targetPoint" />
          </mxGeometry>
        </mxCell>
        <mxCell id="3ae-N-7YaE51V6dqeBcd-9" value="" style="endArrow=none;html=1;rounded=0;entryX=0.5;entryY=1;entryDx=0;entryDy=0;endFill=0;startArrow=none;startFill=0;strokeWidth=2;exitX=0.5;exitY=0;exitDx=0;exitDy=0;" edge="1" parent="1" source="3ae-N-7YaE51V6dqeBcd-4" target="3ae-N-7YaE51V6dqeBcd-2">
          <mxGeometry width="50" height="50" relative="1" as="geometry">
            <mxPoint x="390" y="170" as="sourcePoint" />
            <mxPoint x="390" y="130" as="targetPoint" />
          </mxGeometry>
        </mxCell>
        <mxCell id="3ae-N-7YaE51V6dqeBcd-10" value="" style="endArrow=none;html=1;rounded=0;entryX=0.5;entryY=0;entryDx=0;entryDy=0;endFill=0;startArrow=none;startFill=0;strokeWidth=2;exitX=1;exitY=0.5;exitDx=0;exitDy=0;" edge="1" parent="1" source="3ae-N-7YaE51V6dqeBcd-4" target="3ae-N-7YaE51V6dqeBcd-5">
          <mxGeometry width="50" height="50" relative="1" as="geometry">
            <mxPoint x="390" y="290" as="sourcePoint" />
            <mxPoint x="390" y="250" as="targetPoint" />
            <Array as="points">
              <mxPoint x="540" y="340" />
            </Array>
          </mxGeometry>
        </mxCell>
        <mxCell id="3ae-N-7YaE51V6dqeBcd-14" value="" style="endArrow=classic;html=1;rounded=0;exitX=0;exitY=0.5;exitDx=0;exitDy=0;entryX=0.5;entryY=0;entryDx=0;entryDy=0;entryPerimeter=0;strokeWidth=2;" edge="1" parent="1" source="3ae-N-7YaE51V6dqeBcd-4" target="3ae-N-7YaE51V6dqeBcd-7">
          <mxGeometry width="50" height="50" relative="1" as="geometry">
            <mxPoint x="270" y="340" as="sourcePoint" />
            <mxPoint x="440" y="460" as="targetPoint" />
            <Array as="points">
              <mxPoint x="240" y="340" />
              <mxPoint x="240" y="680" />
              <mxPoint x="400" y="680" />
            </Array>
          </mxGeometry>
        </mxCell>
        <mxCell id="3ae-N-7YaE51V6dqeBcd-15" value="Да" style="text;html=1;align=center;verticalAlign=middle;whiteSpace=wrap;rounded=0;strokeWidth=1;fontStyle=1" vertex="1" parent="1">
          <mxGeometry x="470" y="310" width="70" height="40" as="geometry" />
        </mxCell>
        <mxCell id="3ae-N-7YaE51V6dqeBcd-16" value="Да" style="text;html=1;align=center;verticalAlign=middle;whiteSpace=wrap;rounded=0;strokeWidth=1;fontStyle=1" vertex="1" parent="1">
          <mxGeometry x="620" y="430" width="70" height="40" as="geometry" />
        </mxCell>
        <mxCell id="3ae-N-7YaE51V6dqeBcd-18" value="" style="endArrow=classic;html=1;rounded=0;entryX=0.5;entryY=0;entryDx=0;entryDy=0;exitX=0;exitY=0.5;exitDx=0;exitDy=0;strokeWidth=2;" edge="1" parent="1" source="3ae-N-7YaE51V6dqeBcd-5" target="3ae-N-7YaE51V6dqeBcd-6">
          <mxGeometry width="50" height="50" relative="1" as="geometry">
            <mxPoint x="210" y="410" as="sourcePoint" />
            <mxPoint x="150" y="670" as="targetPoint" />
            <Array as="points">
              <mxPoint x="400" y="460" />
              <mxPoint x="400" y="530" />
            </Array>
          </mxGeometry>
        </mxCell>
        <mxCell id="3ae-N-7YaE51V6dqeBcd-21" value="" style="endArrow=classic;html=1;rounded=0;entryX=0.5;entryY=0;entryDx=0;entryDy=0;entryPerimeter=0;exitX=1;exitY=0.5;exitDx=0;exitDy=0;fontStyle=1;strokeWidth=2;" edge="1" parent="1" source="3ae-N-7YaE51V6dqeBcd-5" target="3ae-N-7YaE51V6dqeBcd-7">
          <mxGeometry width="50" height="50" relative="1" as="geometry">
            <mxPoint x="580" y="570" as="sourcePoint" />
            <mxPoint x="630" y="520" as="targetPoint" />
            <Array as="points">
              <mxPoint x="680" y="460" />
              <mxPoint x="680" y="680" />
              <mxPoint x="400" y="680" />
            </Array>
          </mxGeometry>
        </mxCell>
        <mxCell id="3ae-N-7YaE51V6dqeBcd-22" value="" style="endArrow=classic;html=1;rounded=0;exitX=0.5;exitY=1;exitDx=0;exitDy=0;entryX=0.5;entryY=0;entryDx=0;entryDy=0;entryPerimeter=0;strokeWidth=2;" edge="1" parent="1" source="3ae-N-7YaE51V6dqeBcd-6" target="3ae-N-7YaE51V6dqeBcd-7">
          <mxGeometry width="50" height="50" relative="1" as="geometry">
            <mxPoint x="580" y="570" as="sourcePoint" />
            <mxPoint x="630" y="520" as="targetPoint" />
          </mxGeometry>
        </mxCell>
      </root>
    </mxGraphModel>
  </diagram>
</mxfile>
